<mxfile host="app.diagrams.net" agent="Mozilla/5.0 (Windows NT 10.0; Win64; x64) AppleWebKit/537.36 (KHTML, like Gecko) Chrome/132.0.0.0 Safari/537.36" version="26.0.11">
  <diagram name="PÃ¡gina-1" id="-1j-9Xx8OZhU-RbtYIx3">
    <mxGraphModel dx="1717" dy="772" grid="1" gridSize="10" guides="1" tooltips="1" connect="1" arrows="1" fold="1" page="1" pageScale="1" pageWidth="827" pageHeight="1169" math="0" shadow="0">
      <root>
        <mxCell id="0" />
        <mxCell id="1" parent="0" />
        <mxCell id="iPQEK41i8IrOWf0NXXwL-16" value="" style="rounded=1;arcSize=10;dashed=1;fillColor=none;gradientColor=none;dashPattern=1 1;strokeWidth=2;" vertex="1" parent="1">
          <mxGeometry x="300" y="260" width="230" height="300" as="geometry" />
        </mxCell>
        <mxCell id="OsBQG-jelnCSii80OH9A-3" value="" style="group" parent="1" vertex="1" connectable="0">
          <mxGeometry x="359.75" y="32.620000000000005" width="80" height="118" as="geometry" />
        </mxCell>
        <mxCell id="OsBQG-jelnCSii80OH9A-1" value="" style="sketch=0;outlineConnect=0;fontColor=#232F3E;gradientColor=none;fillColor=#232F3D;strokeColor=none;dashed=0;verticalLabelPosition=bottom;verticalAlign=top;align=center;html=1;fontSize=12;fontStyle=0;aspect=fixed;pointerEvents=1;shape=mxgraph.aws4.user;" parent="OsBQG-jelnCSii80OH9A-3" vertex="1">
          <mxGeometry width="78" height="78" as="geometry" />
        </mxCell>
        <mxCell id="OsBQG-jelnCSii80OH9A-2" value="Data&lt;br&gt;Partnership" style="text;html=1;align=center;verticalAlign=middle;resizable=0;points=[];autosize=1;strokeColor=none;fillColor=none;" parent="OsBQG-jelnCSii80OH9A-3" vertex="1">
          <mxGeometry y="78" width="80" height="40" as="geometry" />
        </mxCell>
        <mxCell id="OsBQG-jelnCSii80OH9A-4" value="" style="group" parent="1" vertex="1" connectable="0">
          <mxGeometry x="120" y="121.25" width="80" height="118" as="geometry" />
        </mxCell>
        <mxCell id="OsBQG-jelnCSii80OH9A-5" value="" style="sketch=0;outlineConnect=0;fontColor=#232F3E;gradientColor=none;fillColor=#232F3D;strokeColor=none;dashed=0;verticalLabelPosition=bottom;verticalAlign=top;align=center;html=1;fontSize=12;fontStyle=0;aspect=fixed;pointerEvents=1;shape=mxgraph.aws4.user;" parent="OsBQG-jelnCSii80OH9A-4" vertex="1">
          <mxGeometry width="80" height="80" as="geometry" />
        </mxCell>
        <mxCell id="OsBQG-jelnCSii80OH9A-6" value="IA Developer&amp;nbsp;&lt;div&gt;- Standard&lt;/div&gt;" style="text;html=1;align=center;verticalAlign=middle;resizable=0;points=[];autosize=1;strokeColor=none;fillColor=none;" parent="OsBQG-jelnCSii80OH9A-4" vertex="1">
          <mxGeometry x="-7.272727272727273" y="78" width="100" height="40" as="geometry" />
        </mxCell>
        <mxCell id="OsBQG-jelnCSii80OH9A-8" value="Carga de&lt;div&gt;datos&lt;/div&gt;" style="text;html=1;align=center;verticalAlign=middle;resizable=0;points=[];autosize=1;strokeColor=none;fillColor=none;" parent="1" vertex="1">
          <mxGeometry x="405.75" y="170.62" width="70" height="40" as="geometry" />
        </mxCell>
        <mxCell id="OsBQG-jelnCSii80OH9A-19" value="" style="group" parent="1" vertex="1" connectable="0">
          <mxGeometry x="560" y="280" width="80" height="118" as="geometry" />
        </mxCell>
        <mxCell id="OsBQG-jelnCSii80OH9A-20" value="" style="sketch=0;outlineConnect=0;fontColor=#232F3E;gradientColor=none;fillColor=#232F3D;strokeColor=none;dashed=0;verticalLabelPosition=bottom;verticalAlign=top;align=center;html=1;fontSize=12;fontStyle=0;aspect=fixed;pointerEvents=1;shape=mxgraph.aws4.user;" parent="OsBQG-jelnCSii80OH9A-19" vertex="1">
          <mxGeometry width="80" height="80" as="geometry" />
        </mxCell>
        <mxCell id="OsBQG-jelnCSii80OH9A-21" value="IA Developer&amp;nbsp;&lt;div&gt;- Pro&lt;/div&gt;" style="text;html=1;align=center;verticalAlign=middle;resizable=0;points=[];autosize=1;strokeColor=none;fillColor=none;" parent="OsBQG-jelnCSii80OH9A-19" vertex="1">
          <mxGeometry x="-7.272727272727273" y="78" width="100" height="40" as="geometry" />
        </mxCell>
        <mxCell id="OsBQG-jelnCSii80OH9A-22" value="" style="group" parent="1" vertex="1" connectable="0">
          <mxGeometry x="120" y="360" width="80" height="118" as="geometry" />
        </mxCell>
        <mxCell id="OsBQG-jelnCSii80OH9A-23" value="" style="sketch=0;outlineConnect=0;fontColor=#232F3E;gradientColor=none;fillColor=#232F3D;strokeColor=none;dashed=0;verticalLabelPosition=bottom;verticalAlign=top;align=center;html=1;fontSize=12;fontStyle=0;aspect=fixed;pointerEvents=1;shape=mxgraph.aws4.user;" parent="OsBQG-jelnCSii80OH9A-22" vertex="1">
          <mxGeometry width="80" height="80" as="geometry" />
        </mxCell>
        <mxCell id="OsBQG-jelnCSii80OH9A-24" value="IA Developer&amp;nbsp;&lt;div&gt;- Enterprise&lt;/div&gt;" style="text;html=1;align=center;verticalAlign=middle;resizable=0;points=[];autosize=1;strokeColor=none;fillColor=none;" parent="OsBQG-jelnCSii80OH9A-22" vertex="1">
          <mxGeometry x="-7.272727272727273" y="78" width="100" height="40" as="geometry" />
        </mxCell>
        <mxCell id="OsBQG-jelnCSii80OH9A-25" value="" style="group" parent="1" vertex="1" connectable="0">
          <mxGeometry x="360" y="438" width="80" height="118" as="geometry" />
        </mxCell>
        <mxCell id="OsBQG-jelnCSii80OH9A-26" value="" style="sketch=0;outlineConnect=0;fontColor=#232F3E;gradientColor=none;fillColor=#232F3D;strokeColor=none;dashed=0;verticalLabelPosition=bottom;verticalAlign=top;align=center;html=1;fontSize=12;fontStyle=0;aspect=fixed;pointerEvents=1;shape=mxgraph.aws4.user;" parent="OsBQG-jelnCSii80OH9A-25" vertex="1">
          <mxGeometry width="80" height="80" as="geometry" />
        </mxCell>
        <mxCell id="OsBQG-jelnCSii80OH9A-27" value="Agente de&lt;div&gt;Cuenta&lt;/div&gt;" style="text;html=1;align=center;verticalAlign=middle;resizable=0;points=[];autosize=1;strokeColor=none;fillColor=none;" parent="OsBQG-jelnCSii80OH9A-25" vertex="1">
          <mxGeometry y="78" width="80" height="40" as="geometry" />
        </mxCell>
        <mxCell id="iPQEK41i8IrOWf0NXXwL-2" style="edgeStyle=orthogonalEdgeStyle;rounded=0;orthogonalLoop=1;jettySize=auto;html=1;" edge="1" parent="1" source="OsBQG-jelnCSii80OH9A-2">
          <mxGeometry relative="1" as="geometry">
            <mxPoint x="399.75" y="280" as="targetPoint" />
          </mxGeometry>
        </mxCell>
        <mxCell id="iPQEK41i8IrOWf0NXXwL-3" value="Sistema&amp;nbsp;&lt;span style=&quot;background-color: transparent; color: light-dark(rgb(0, 0, 0), rgb(255, 255, 255));&quot;&gt;SaludTech de los Andes&lt;/span&gt;" style="rounded=1;whiteSpace=wrap;html=1;" vertex="1" parent="1">
          <mxGeometry x="340" y="280" width="120" height="60" as="geometry" />
        </mxCell>
        <mxCell id="iPQEK41i8IrOWf0NXXwL-4" style="edgeStyle=orthogonalEdgeStyle;rounded=0;orthogonalLoop=1;jettySize=auto;html=1;entryX=0.5;entryY=1;entryDx=0;entryDy=0;" edge="1" parent="1" source="OsBQG-jelnCSii80OH9A-26" target="iPQEK41i8IrOWf0NXXwL-3">
          <mxGeometry relative="1" as="geometry" />
        </mxCell>
        <mxCell id="iPQEK41i8IrOWf0NXXwL-5" value="Provisionamiento&lt;div&gt;de infraestructura&lt;/div&gt;" style="text;html=1;align=center;verticalAlign=middle;resizable=0;points=[];autosize=1;strokeColor=none;fillColor=none;" vertex="1" parent="1">
          <mxGeometry x="400" y="380" width="120" height="40" as="geometry" />
        </mxCell>
        <mxCell id="iPQEK41i8IrOWf0NXXwL-6" style="edgeStyle=orthogonalEdgeStyle;rounded=0;orthogonalLoop=1;jettySize=auto;html=1;entryX=0;entryY=0.25;entryDx=0;entryDy=0;" edge="1" parent="1" source="OsBQG-jelnCSii80OH9A-5" target="iPQEK41i8IrOWf0NXXwL-3">
          <mxGeometry relative="1" as="geometry" />
        </mxCell>
        <mxCell id="iPQEK41i8IrOWf0NXXwL-7" value="Consulta&lt;div&gt;de datos&lt;/div&gt;" style="text;html=1;align=center;verticalAlign=middle;resizable=0;points=[];autosize=1;strokeColor=none;fillColor=none;" vertex="1" parent="1">
          <mxGeometry x="270" y="210" width="70" height="40" as="geometry" />
        </mxCell>
        <mxCell id="iPQEK41i8IrOWf0NXXwL-8" style="edgeStyle=orthogonalEdgeStyle;rounded=0;orthogonalLoop=1;jettySize=auto;html=1;entryX=0;entryY=0.5;entryDx=0;entryDy=0;" edge="1" parent="1" source="OsBQG-jelnCSii80OH9A-23" target="iPQEK41i8IrOWf0NXXwL-3">
          <mxGeometry relative="1" as="geometry" />
        </mxCell>
        <mxCell id="iPQEK41i8IrOWf0NXXwL-9" style="edgeStyle=orthogonalEdgeStyle;rounded=0;orthogonalLoop=1;jettySize=auto;html=1;entryX=0;entryY=0.75;entryDx=0;entryDy=0;" edge="1" parent="1" source="OsBQG-jelnCSii80OH9A-23" target="iPQEK41i8IrOWf0NXXwL-3">
          <mxGeometry relative="1" as="geometry">
            <Array as="points">
              <mxPoint x="280" y="410" />
              <mxPoint x="280" y="325" />
            </Array>
          </mxGeometry>
        </mxCell>
        <mxCell id="iPQEK41i8IrOWf0NXXwL-10" value="Consulta&lt;div&gt;de datos&lt;/div&gt;" style="text;html=1;align=center;verticalAlign=middle;resizable=0;points=[];autosize=1;strokeColor=none;fillColor=none;" vertex="1" parent="1">
          <mxGeometry x="200" y="360" width="70" height="40" as="geometry" />
        </mxCell>
        <mxCell id="iPQEK41i8IrOWf0NXXwL-11" value="Consulta&lt;div&gt;&lt;span style=&quot;background-color: transparent; color: light-dark(rgb(0, 0, 0), rgb(255, 255, 255));&quot;&gt;de datos&lt;/span&gt;&lt;/div&gt;&lt;div&gt;&lt;span style=&quot;background-color: transparent; color: light-dark(rgb(0, 0, 0), rgb(255, 255, 255));&quot;&gt;columnar&lt;/span&gt;&lt;/div&gt;" style="text;html=1;align=center;verticalAlign=middle;resizable=0;points=[];autosize=1;strokeColor=none;fillColor=none;" vertex="1" parent="1">
          <mxGeometry x="200" y="410" width="70" height="60" as="geometry" />
        </mxCell>
        <mxCell id="iPQEK41i8IrOWf0NXXwL-12" style="edgeStyle=orthogonalEdgeStyle;rounded=0;orthogonalLoop=1;jettySize=auto;html=1;entryX=1;entryY=0.25;entryDx=0;entryDy=0;" edge="1" parent="1" source="OsBQG-jelnCSii80OH9A-20" target="iPQEK41i8IrOWf0NXXwL-3">
          <mxGeometry relative="1" as="geometry" />
        </mxCell>
        <mxCell id="iPQEK41i8IrOWf0NXXwL-13" style="edgeStyle=orthogonalEdgeStyle;rounded=0;orthogonalLoop=1;jettySize=auto;html=1;entryX=1;entryY=0.5;entryDx=0;entryDy=0;" edge="1" parent="1" source="OsBQG-jelnCSii80OH9A-20" target="iPQEK41i8IrOWf0NXXwL-3">
          <mxGeometry relative="1" as="geometry">
            <Array as="points">
              <mxPoint x="500" y="330" />
              <mxPoint x="500" y="310" />
            </Array>
          </mxGeometry>
        </mxCell>
        <mxCell id="iPQEK41i8IrOWf0NXXwL-14" style="edgeStyle=orthogonalEdgeStyle;rounded=0;orthogonalLoop=1;jettySize=auto;html=1;entryX=1;entryY=0.75;entryDx=0;entryDy=0;" edge="1" parent="1" source="OsBQG-jelnCSii80OH9A-20" target="iPQEK41i8IrOWf0NXXwL-3">
          <mxGeometry relative="1" as="geometry">
            <Array as="points">
              <mxPoint x="490" y="340" />
              <mxPoint x="490" y="325" />
            </Array>
          </mxGeometry>
        </mxCell>
        <mxCell id="iPQEK41i8IrOWf0NXXwL-18" value="" style="endArrow=classic;startArrow=classic;html=1;rounded=0;entryX=0.473;entryY=1.125;entryDx=0;entryDy=0;entryPerimeter=0;" edge="1" parent="1" source="OsBQG-jelnCSii80OH9A-26" target="OsBQG-jelnCSii80OH9A-21">
          <mxGeometry width="50" height="50" relative="1" as="geometry">
            <mxPoint x="620" y="560" as="sourcePoint" />
            <mxPoint x="670" y="510" as="targetPoint" />
            <Array as="points">
              <mxPoint x="600" y="480" />
            </Array>
          </mxGeometry>
        </mxCell>
        <mxCell id="iPQEK41i8IrOWf0NXXwL-19" value="AnÃ¡lisis&lt;div&gt;Requerimientos&lt;/div&gt;" style="text;html=1;align=center;verticalAlign=middle;resizable=0;points=[];autosize=1;strokeColor=none;fillColor=none;" vertex="1" parent="1">
          <mxGeometry x="530" y="480" width="110" height="40" as="geometry" />
        </mxCell>
      </root>
    </mxGraphModel>
  </diagram>
</mxfile>
